HIERARCHY
ROOT Hips
{
    OFFSET 0.000000 0.000000 0.000000
    CHANNELS 6 Xposition Yposition Zposition Zrotation Xrotation Yrotation
    JOINT Spine
    {
        OFFSET -0.000000 7.236184 0.000000
        CHANNELS 3 Zrotation Xrotation Yrotation
        JOINT Spine1
        {
            OFFSET -0.000000 20.420147 0.000000
            CHANNELS 3 Zrotation Xrotation Yrotation
            JOINT Neck
            {
                OFFSET -0.000000 20.336288 1.848754
                CHANNELS 3 Zrotation Xrotation Yrotation
                JOINT Head
                {
                    OFFSET -0.000000 12.354461 -1.764923
                    CHANNELS 3 Zrotation Xrotation Yrotation
                    End Site
                    {
                        OFFSET -0.000000 22.061537 0.000000
                    }
                }
            }
            JOINT LeftShoulder
            {
                OFFSET 3.573296 18.396038 -0.314103
                CHANNELS 3 Zrotation Xrotation Yrotation
                JOINT LeftArm
                {
                    OFFSET 10.880760 0.000000 0.000000
                    CHANNELS 3 Zrotation Xrotation Yrotation
                    JOINT LeftForeArm
                    {
                        OFFSET 27.185530 0.000000 0.000000
                        CHANNELS 3 Zrotation Xrotation Yrotation
                        JOINT LeftHand
                        {
                            OFFSET 27.825975 0.000000 0.000000
                            CHANNELS 3 Zrotation Xrotation Yrotation
                            End Site
                            {
                                OFFSET 13.236923 0.000000 0.000000
                            }
                        }
                    }
                }
            }
            JOINT RightShoulder
            {
                OFFSET -3.474926 18.396038 -0.314103
                CHANNELS 3 Zrotation Xrotation Yrotation
                JOINT RightArm
                {
                    OFFSET -10.880760 0.000000 0.000000
                    CHANNELS 3 Zrotation Xrotation Yrotation
                    JOINT RightForeArm
                    {
                        OFFSET -27.185530 0.000000 0.000000
                        CHANNELS 3 Zrotation Xrotation Yrotation
                        JOINT RightHand
                        {
                            OFFSET -27.825975 0.000000 0.000000
                            CHANNELS 3 Zrotation Xrotation Yrotation
                            End Site
                            {
                                OFFSET -13.236923 0.000000 0.000000
                            }
                        }
                    }
                }
            }
        }
    }
    JOINT LeftUpLeg
    {
        OFFSET 8.824615 0.000000 0.000000
        CHANNELS 3 Zrotation Xrotation Yrotation
        JOINT LeftLeg
        {
            OFFSET -0.000000 -35.111282 0.000000
            CHANNELS 3 Zrotation Xrotation Yrotation
            JOINT LeftFoot
            {
                OFFSET -0.000000 -42.324711 0.000000
                CHANNELS 3 Zrotation Xrotation Yrotation
                JOINT LeftToeBase
                {
                    OFFSET -0.000000 -5.735999 13.236923
                    CHANNELS 3 Zrotation Xrotation Yrotation
                    End Site
                    {
                        OFFSET -0.000000 0.000000 3.529846
                    }
                }
            }
        }
    }
    JOINT RightUpLeg
    {
        OFFSET -8.824615 0.000000 0.000000
        CHANNELS 3 Zrotation Xrotation Yrotation
        JOINT RightLeg
        {
            OFFSET -0.000000 -35.111282 0.000000
            CHANNELS 3 Zrotation Xrotation Yrotation
            JOINT RightFoot
            {
                OFFSET -0.000000 -42.324711 0.000000
                CHANNELS 3 Zrotation Xrotation Yrotation
                JOINT RightToeBase
                {
                    OFFSET -0.000000 -5.735999 13.236923
                    CHANNELS 3 Zrotation Xrotation Yrotation
                    End Site
                    {
                        OFFSET -0.000000 0.000000 3.529846
                    }
                }
            }
        }
    }
}
MOTION
Frames:    5
Frame Time:    0.008333
-6.016467    82.771210    103.273941    0.618997    -7.210206    -174.014343    -2.406400    -8.393930    0.740907    -0.921909    5.422772    0.961215    -0.961490    6.958339    -5.369654    10.181432    -7.406411    -3.410543    -2.735513    15.950448    0.914893    -39.917942    43.128696    -46.535198    15.782500    -9.815586    -50.479958    10.112541    -2.558798    -2.192429    8.697538    17.456409    -8.667884    43.185623    42.390396    32.627197    -19.808578    -15.920582    60.649616    -26.936491    -5.374997    4.164316    3.197377    -18.634920    -1.937031    1.594078    24.518248    1.989837    -7.698458    -10.631621    -13.064220    -0.170003    -1.015945    0.188790    -4.345826    -14.173106    -0.370040    1.601173    20.262030    4.521327    -0.737425    -8.962213    -13.846563    -1.834939    -1.803580    1.989592    
-5.858844    82.738113    103.253380    0.547840    -7.187757    -174.060791    -2.353847    -8.418265    0.715662    -0.884844    5.534005    0.931665    -1.007315    6.861325    -5.234158    9.967255    -7.191368    -3.326855    -2.820438    16.007032    0.968227    -40.416451    42.376011    -45.701683    15.864838    -9.402155    -49.221706    10.553511    -2.357313    -2.568750    8.738038    17.455528    -8.746099    43.268829    41.655495    32.145313    -19.622044    -15.453823    59.615578    -27.206690    -5.343070    4.525800    3.252178    -18.641781    -1.907900    1.590991    24.596348    2.080168    -7.810280    -10.647182    -13.141561    -0.172591    -1.032726    0.191670    -4.310922    -14.289762    -0.452781    1.596930    20.527084    4.613713    -0.798125    -9.079094    -13.824654    -1.835396    -1.748206    1.989932    
-5.715459    82.709030    103.230705    0.479215    -7.165147    -174.109070    -2.302066    -8.444991    0.692565    -0.848123    5.636478    0.904370    -1.040799    6.791668    -5.105104    9.744660    -6.982882    -3.251539    -2.877465    16.046230    1.025389    -40.909824    41.595509    -44.837055    15.900623    -8.957842    -48.041271    10.958111    -2.133026    -2.922425    8.743858    17.433750    -8.825356    43.355846    40.890873    31.614204    -19.424360    -14.981684    58.663456    -27.461899    -5.284420    4.871141    3.300443    -18.631912    -1.875705    1.588169    24.651087    2.154126    -7.905782    -10.658555    -13.202190    -0.176641    -1.048634    0.196173    -4.284795    -14.374205    -0.538036    1.592117    20.738108    4.713675    -0.848494    -9.180161    -13.802479    -1.836084    -1.698310    1.990537    
-5.569227    82.681015    103.203369    0.404887    -7.138383    -174.163498    -2.245648    -8.474293    0.668136    -0.807621    5.740130    0.875089    -1.066800    6.740863    -4.967509    9.488392    -6.755455    -3.175622    -2.910225    16.068249    1.088993    -41.439224    40.702026    -43.853516    15.888238    -8.440063    -46.819019    11.380317    -1.867366    -3.295353    8.713838    17.387230    -8.912468    43.449806    40.012753    30.981358    -19.190096    -14.457447    57.696323    -27.723684    -5.197091    5.234238    3.347682    -18.603212    -1.834767    1.586327    24.688648    2.218757    -7.996584    -10.666895    -13.255219    -0.182023    -1.065019    0.202156    -4.263715    -14.436314    -0.628174    1.588247    20.922434    4.825666    -0.896166    -9.277217    -13.779484    -1.836863    -1.649591    1.991245    
-5.421112    82.655159    103.171135    0.325072    -7.106213    -174.223267    -2.184883    -8.503348    0.641385    -0.762637    5.841340    0.842758    -1.085410    6.713097    -4.821430    9.196757    -6.507850    -3.099374    -2.910788    16.065952    1.156081    -41.989773    39.691357    -42.750553    15.812776    -7.854070    -45.582676    11.820475    -1.565535    -3.682424    8.638150    17.309980    -9.005300    43.544849    39.016499    30.242918    -18.916313    -13.885665    56.737793    -27.980856    -5.078782    5.607274    3.393417    -18.552570    -1.782370    1.586753    24.705666    2.270661    -8.081455    -10.671371    -13.300941    -0.188634    -1.080767    0.209505    -4.247730    -14.472025    -0.716866    1.587241    21.075480    4.945569    -0.944774    -9.367782    -13.759164    -1.837727    -1.602944    1.992050    
